<svg xmlns="http://www.w3.org/2000/svg" version="1.1" xmlns:xlink="http://www.w3.org/1999/xlink" viewBox="0 0 18.777566023578704 5.929089760521988"><g transform="matrix(1,0,0,1,7.343741236129506,1.956413630260994)"><g clip-path="url(#SvgjsClipPath1001)"><g clip-path="url(#SvgjsClipPath1000aa865765-e12b-423c-a9dd-0df88cfc124f)"><path d=" M -0.8484859835307592 2.3401882249887622 L -3.92266978697565 2.3401882249887622 C -3.9682331040275796 2.3401882249887622 -4.0075426324645385 2.3124928754081773 -4.023623803188748 2.2705031518505168 L -5.181468095331899 -0.8939138873246659 L -5.676410794288152 -0.8939138873246659 C -5.734481688570024 -0.8939138873246659 -5.782725200742655 -0.9421573994972973 -5.782725200742655 -1.0002282937791682 C -5.782725200742655 -1.058299188061039 -5.734481688570024 -1.1065427002336703 -5.676410794288152 -1.1065427002336703 L -5.10642263195225 -1.1065427002336703 C -5.060859314900321 -1.1065427002336703 -5.021549786463361 -1.0788473506530858 -5.005468615739151 -1.036857627095425 L -3.847624323596001 2.1257726153326235 L -0.8475925851571908 2.1257726153326235 C -0.7895216908753202 2.1257726153326235 -0.7412781787026885 2.1740161275052547 -0.7412781787026885 2.232087021787126 C -0.7412781787026894 2.2919447128161314 -0.7886282925017527 2.3401882249887622 -0.8484859835307592 2.3401882249887622 Z" fill="#202020" transform="matrix(1,0,0,1,0,0)" fill-rule="nonzero"></path></g><g clip-path="url(#SvgjsClipPath1000aa865765-e12b-423c-a9dd-0df88cfc124f)"><path d=" M -3.3151588929499227 2.8154761597265368 C -3.3151588929499227 2.98520931739721 -3.4527547757863815 3.1228052002336693 -3.6224879334570548 3.1228052002336693 C -3.792221091127729 3.1228052002336693 -3.9298169739641873 2.98520931739721 -3.9298169739641873 2.8154761597265368 C -3.9298169739641873 2.6457430020558634 -3.792221091127729 2.5081471192194043 -3.6224879334570548 2.5081471192194043 C -3.4527547757863815 2.5081471192194043 -3.3151588929499227 2.6457430020558634 -3.3151588929499227 2.8154761597265368 Z" fill="#202020" transform="matrix(1,0,0,1,0,0)" fill-rule="nonzero"></path></g><g clip-path="url(#SvgjsClipPath1000aa865765-e12b-423c-a9dd-0df88cfc124f)"><path d=" M -1.3395700055717388 2.5117731551982043 C -1.172026405635017 2.5389644070570454 -1.058248370117549 2.6968281634353146 -1.0854396219763913 2.864371763372037 C -1.112630873835232 3.031915363308758 -1.270494630213503 3.145693398826226 -1.438038230150224 3.1185021469673835 C -1.6055818300869458 3.091310895108542 -1.719359865604413 2.9334471387302727 -1.6921686137455723 2.7659035387935513 C -1.6649773618867298 2.5983599388568295 -1.5071136055084606 2.484581903339362 -1.3395700055717388 2.5117731551982043 Z" fill="#202020" transform="matrix(1,0,0,1,0,0)" fill-rule="nonzero"></path></g><g clip-path="url(#SvgjsClipPath1000aa865765-e12b-423c-a9dd-0df88cfc124f)"><path d=" M -0.5063144064545035 1.5888401928187088 L -3.80920819353261 1.5888401928187088 C -3.867279087814481 1.5888401928187088 -3.9155225999871117 1.5405966806460776 -3.9155225999871117 1.482525786364207 C -3.9155225999871117 1.4244548920823359 -3.867279087814481 1.3762113799097047 -3.80920819353261 1.3762113799097047 L -0.6170958047768424 1.3762113799097047 C -0.6724865039380115 0.592701006291231 -1.326454113389235 -0.026424066590870376 -2.1233654626112175 -0.026424066590870376 L -4.310404681103834 -0.026424066590870376 C -4.368475575385705 -0.026424066590870376 -4.416719087558336 -0.07466757876350183 -4.416719087558336 -0.13273847304537256 C -4.416719087558336 -0.19080936732724363 -4.368475575385705 -0.23905287949987475 -4.310404681103834 -0.23905287949987475 L -2.1233654626112175 -0.23905287949987475 C -1.173682991509236 -0.23905287949987475 -0.40000000000000124 0.5346301120093595 -0.40000000000000124 1.4843125831113415 C -0.40000000000000124 1.5405966806460776 -0.4482435121726329 1.5888401928187088 -0.5063144064545035 1.5888401928187088 Z" fill="#202020" transform="matrix(1,0,0,1,0,0)" fill-rule="nonzero"></path></g><g clip-path="url(#SvgjsClipPath1000aa865765-e12b-423c-a9dd-0df88cfc124f)"><path d=" M -2.5941864054811563 0.36309762428444814 L -4.461389006236699 0.36309762428444814 C -4.50337872979436 0.36309762428444814 -4.538221266363482 0.3282550877153254 -4.538221266363482 0.2862653641576651 C -4.538221266363482 0.24427564060000462 -4.50337872979436 0.2094331040308819 -4.461389006236699 0.2094331040308819 L -2.5941864054811563 0.2094331040308819 C -2.552196681923496 0.2094331040308819 -2.5173541453543726 0.24427564060000462 -2.5173541453543726 0.2862653641576651 C -2.515567348607238 0.33004188446246063 -2.550409885176361 0.36309762428444814 -2.5941864054811563 0.36309762428444814 Z" fill="#facf0e" transform="matrix(1,0,0,1,0,0)" fill-rule="nonzero"></path></g><g clip-path="url(#SvgjsClipPath1000aa865765-e12b-423c-a9dd-0df88cfc124f)"><path d=" M -1.8526657554203423 0.7687004858839779 L -2.9613731370172935 0.7687004858839779 C -3.003362860574954 0.7687004858839779 -3.038205397144077 0.7338579493148556 -3.038205397144077 0.6918682257571946 C -3.038205397144077 0.6498785021995344 -3.0033628605749545 0.6150359656304116 -2.9613731370172935 0.6150359656304116 L -1.8526657554203423 0.6150359656304116 C -1.8106760318626813 0.6150359656304116 -1.7758334952935586 0.6498785021995337 -1.7758334952935586 0.6918682257571946 C -1.774940096919992 0.7338579493148552 -1.8097826334891138 0.7687004858839779 -1.8526657554203423 0.7687004858839779 Z" fill="#facf0e" transform="matrix(1,0,0,1,0,0)" fill-rule="nonzero"></path></g><g clip-path="url(#SvgjsClipPath1000aa865765-e12b-423c-a9dd-0df88cfc124f)"><path d=" M -1.0923837395146174 1.136780615793683 L -3.5277877058589273 1.136780615793683 C -3.569777429416588 1.136780615793683 -3.604619965985711 1.1019380792245603 -3.604619965985711 1.0599483556668994 C -3.604619965985711 1.0179586321092389 -3.5697774294165883 0.9831160955401161 -3.5277877058589273 0.9831160955401161 L -1.0923837395146174 0.9831160955401161 C -1.0503940159569556 0.9831160955401161 -1.0155514793878337 1.0179586321092384 -1.0155514793878337 1.0599483556668994 C -1.0146580810142662 1.1019380792245599 -1.049500617583389 1.136780615793683 -1.0923837395146174 1.136780615793683 Z" fill="#facf0e" transform="matrix(1,0,0,1,0,0)" fill-rule="nonzero"></path></g><g clip-path="url(#SvgjsClipPath1000aa865765-e12b-423c-a9dd-0df88cfc124f)"><path d=" M -3.273169169392262 0.7687004858839779 L -4.79194640445658 0.7687004858839779 C -4.83393612801424 0.7687004858839779 -4.868778664583362 0.7338579493148556 -4.868778664583362 0.6918682257571946 C -4.868778664583362 0.6498785021995344 -4.83393612801424 0.6150359656304116 -4.79194640445658 0.6150359656304116 L -3.272275771018695 0.6150359656304116 C -3.2302860474610346 0.6150359656304116 -3.195443510891912 0.6498785021995337 -3.195443510891912 0.6918682257571946 C -3.195443510891912 0.7338579493148552 -3.2302860474610346 0.7687004858839779 -3.273169169392262 0.7687004858839779 Z" fill="#facf0e" transform="matrix(1,0,0,1,0,0)" fill-rule="nonzero"></path></g><g clip-path="url(#SvgjsClipPath1000aa865765-e12b-423c-a9dd-0df88cfc124f)"><path d=" M -5.907800973042069 -0.9225026352788178 L -6.417038045975399 -0.9225026352788178 C -6.459027769533059 -0.9225026352788178 -6.493870306102182 -0.9573451718479403 -6.493870306102182 -0.9993348954056007 C -6.493870306102182 -1.0413246189632615 -6.459027769533059 -1.076167155532384 -6.417038045975399 -1.076167155532384 L -5.908694371415637 -1.076167155532384 C -5.866704647857976 -1.076167155532384 -5.831862111288853 -1.0413246189632612 -5.831862111288853 -0.9993348954056007 C -5.830968712915286 -0.9582385702215076 -5.865811249484408 -0.9225026352788178 -5.907800973042069 -0.9225026352788178 Z" fill="#facf0e" transform="matrix(1,0,0,1,0,0)" fill-rule="nonzero"></path></g><g clip-path="url(#SvgjsClipPath1000aa865765-e12b-423c-a9dd-0df88cfc124f)"><path d=" M -1.8115694302362488 0.36309762428444814 L -2.3199131047960115 0.36309762428444814 C -2.3619028283536716 0.36309762428444814 -2.3967453649227943 0.3282550877153254 -2.3967453649227943 0.2862653641576651 C -2.3967453649227943 0.24427564060000462 -2.3619028283536716 0.2094331040308819 -2.3199131047960115 0.2094331040308819 L -1.8115694302362488 0.2094331040308819 C -1.7695797066785879 0.2094331040308819 -1.734737170109466 0.24427564060000462 -1.734737170109466 0.2862653641576651 C -1.734737170109466 0.33004188446246063 -1.7695797066785879 0.36309762428444814 -1.8115694302362488 0.36309762428444814 Z" fill="#facf0e" transform="matrix(1,0,0,1,0,0)" fill-rule="nonzero"></path></g><g clip-path="url(#SvgjsClipPath1000aa865765-e12b-423c-a9dd-0df88cfc124f)"><path d=" M -3.80920819353261 1.136780615793683 L -4.196943087660794 1.136780615793683 C -4.238932811218454 1.136780615793683 -4.273775347787577 1.1019380792245603 -4.273775347787577 1.0599483556668994 C -4.273775347787577 1.0179586321092389 -4.238932811218455 0.9831160955401161 -4.196943087660794 0.9831160955401161 L -3.80920819353261 0.9831160955401161 C -3.7672184699749494 0.9831160955401161 -3.7323759334058266 1.0179586321092384 -3.7323759334058266 1.0599483556668994 C -3.730589136658692 1.1019380792245599 -3.7654316732278144 1.136780615793683 -3.80920819353261 1.136780615793683 Z" fill="#facf0e" transform="matrix(1,0,0,1,0,0)" fill-rule="nonzero"></path></g><g clip-path="url(#SvgjsClipPath1000aa865765-e12b-423c-a9dd-0df88cfc124f)"><path d=" M -1.388991999538943 0.7687004858839779 L -1.620382178292858 0.7687004858839779 C -1.6623719018505199 0.7687004858839779 -1.6972144384196417 0.7338579493148556 -1.6972144384196417 0.6918682257571946 C -1.6972144384196417 0.6498785021995344 -1.6623719018505199 0.6150359656304116 -1.620382178292858 0.6150359656304116 L -1.388991999538943 0.6150359656304116 C -1.3470022759812812 0.6150359656304116 -1.3121597394121594 0.6498785021995337 -1.3121597394121594 0.6918682257571946 C -1.3121597394121594 0.7338579493148552 -1.3470022759812812 0.7687004858839779 -1.388991999538943 0.7687004858839779 Z" fill="#facf0e" transform="matrix(1,0,0,1,0,0)" fill-rule="nonzero"></path></g><g clip-path="url(#SvgjsClipPath1000aa865765-e12b-423c-a9dd-0df88cfc124f)"><path d=" M -4.904514599526053 0.36309762428444814 L -5.292249493654237 0.36309762428444814 C -5.3342392172118975 0.36309762428444814 -5.369081753781019 0.3282550877153254 -5.369081753781019 0.2862653641576651 C -5.369081753781019 0.24427564060000462 -5.3342392172118975 0.2094331040308819 -5.292249493654237 0.2094331040308819 L -4.904514599526053 0.2094331040308819 C -4.862524875968392 0.2094331040308819 -4.827682339399269 0.24427564060000462 -4.827682339399269 0.2862653641576651 C -4.827682339399269 0.33004188446246063 -4.862524875968392 0.36309762428444814 -4.904514599526053 0.36309762428444814 Z" fill="#facf0e" transform="matrix(1,0,0,1,0,0)" fill-rule="nonzero"></path></g></g><g><path d=" M 0.384 0.06900000000000006 L 0.006 0.06900000000000006 L 0.006 0 L 0.8385 0 L 0.8385 0.06900000000000006 L 0.4605 0.06900000000000006 L 0.4605 1.05 L 0.384 1.05 L 0.384 0.06900000000000006 M 1.027482421875 0 L 1.103982421875 0 L 1.103982421875 1.05 L 1.027482421875 1.05 L 1.027482421875 0 M 2.462956787109375 1.05 L 2.461456787109375 0.15150000000000008 L 2.021956787109375 0.9105000000000001 L 1.984456787109375 0.9105000000000001 L 1.544956787109375 0.15449999999999997 L 1.544956787109375 1.05 L 1.469956787109375 1.05 L 1.469956787109375 0 L 1.534456787109375 0 L 2.003956787109375 0.8115 L 2.473456787109375 0 L 2.5364567871093753 0 L 2.5379567871093753 1.05 L 2.462956787109375 1.05 M 3.6284472656249998 0.9810000000000001 L 3.6284472656249998 1.05 L 2.903947265625 1.05 L 2.903947265625 0 L 3.605947265625 0 L 3.605947265625 0.06900000000000006 L 2.980447265625 0.06900000000000006 L 2.980447265625 0.483 L 3.539947265625 0.483 L 3.539947265625 0.5505 L 2.980447265625 0.5505 L 2.980447265625 0.9810000000000001 L 3.6284472656249998 0.9810000000000001 M 5.2859853515625 1.05 L 5.2844853515625 0.15150000000000008 L 4.8449853515625 0.9105000000000001 L 4.8074853515625 0.9105000000000001 L 4.3679853515625 0.15449999999999997 L 4.3679853515625 1.05 L 4.2929853515625 1.05 L 4.2929853515625 0 L 4.3574853515625 0 L 4.8269853515625 0.8115 L 5.2964853515625006 0 L 5.3594853515625 0 L 5.3609853515625 1.05 L 5.2859853515625 1.05 M 6.376475830078125 0.7545000000000001 L 5.767475830078125 0.7545000000000001 L 5.633975830078125 1.05 L 5.551475830078125 1.05 L 6.034475830078125 0 L 6.110975830078125 0 L 6.593975830078125 1.05 L 6.511475830078125 1.05 L 6.376475830078125 0.7545000000000001 M 6.347975830078125 0.6900000000000001 L 6.0719758300781255 0.08400000000000007 L 5.797475830078125 0.6900000000000001 L 6.347975830078125 0.6900000000000001 M 7.51350146484375 1.05 L 7.26300146484375 0.6990000000000001 Q 7.20750146484375 0.7065 7.16100146484375 0.7065 L 6.86100146484375 0.7065 L 6.86100146484375 1.05 L 6.78450146484375 1.05 L 6.78450146484375 0 L 7.16100146484375 0 Q 7.35900146484375 0 7.47150146484375 0.09375 Q 7.58400146484375 0.1875 7.58400146484375 0.354 Q 7.58400146484375 0.47850000000000004 7.52025146484375 0.56325 Q 7.45650146484375 0.648 7.33800146484375 0.6825000000000001 L 7.60050146484375 1.05 L 7.51350146484375 1.05 M 7.16100146484375 0.639 Q 7.32900146484375 0.639 7.41750146484375 0.5647500000000001 Q 7.50600146484375 0.49050000000000005 7.50600146484375 0.354 Q 7.50600146484375 0.21750000000000003 7.41750146484375 0.14325 Q 7.32900146484375 0.06900000000000006 7.16100146484375 0.06900000000000006 L 6.86100146484375 0.06900000000000006 L 6.86100146484375 0.639 L 7.16100146484375 0.639 M 8.17645751953125 0.5325000000000001 L 7.94095751953125 0.774 L 7.94095751953125 1.05 L 7.86445751953125 1.05 L 7.86445751953125 0 L 7.94095751953125 0 L 7.94095751953125 0.675 L 8.59645751953125 0 L 8.68945751953125 0 L 8.22745751953125 0.477 L 8.72095751953125 1.05 L 8.62795751953125 1.05 L 8.17645751953125 0.5325000000000001 M 9.6434619140625 0.9810000000000001 L 9.6434619140625 1.05 L 8.9189619140625 1.05 L 8.9189619140625 0 L 9.6209619140625 0 L 9.6209619140625 0.06900000000000006 L 8.9954619140625 0.06900000000000006 L 8.9954619140625 0.483 L 9.5549619140625 0.483 L 9.5549619140625 0.5505 L 8.9954619140625 0.5505 L 8.9954619140625 0.9810000000000001 L 9.6434619140625 0.9810000000000001 M 10.123471435546875 0.06900000000000006 L 9.745471435546875 0.06900000000000006 L 9.745471435546875 0 L 10.577971435546875 0 L 10.577971435546875 0.06900000000000006 L 10.199971435546875 0.06900000000000006 L 10.199971435546875 1.05 L 10.123471435546875 1.05 L 10.123471435546875 0.06900000000000006" fill="#202020" fill-rule="nonzero"></path></g><g><path d=" M 0.531 1.3967625 L 0.531 1.8917624999999998 L 0.59325 1.8917624999999998 L 0.59325 1.3967625 M 0.2295 1.4440125 C 0.129 1.4440125 0.0525 1.5130124999999999 0.0525 1.6105124999999998 C 0.0525 1.7087624999999997 0.129 1.7777625 0.2295 1.7777625 C 0.33075 1.7777625 0.40650000000000003 1.7087624999999997 0.40650000000000003 1.6105124999999998 C 0.40650000000000003 1.5130124999999999 0.33075 1.4440125 0.2295 1.4440125 M 0.2295 1.4980124999999997 C 0.2955 1.4980124999999997 0.34575 1.5445124999999997 0.34575 1.6105124999999998 C 0.34575 1.6772624999999999 0.2955 1.7230124999999998 0.2295 1.7230124999999998 C 0.1635 1.7230124999999998 0.11325 1.6772624999999999 0.11325 1.6105124999999998 C 0.11325 1.5445124999999997 0.1635 1.4980124999999997 0.2295 1.4980124999999997 M 0.1575 1.8415124999999999 L 0.1575 2.0597624999999997 L 0.61425 2.0597624999999997 L 0.61425 2.0087625 L 0.21975 2.0087625 L 0.21975 1.8415124999999999 M 1.0773621826171875 1.8302625 C 0.9371121826171874 1.8302625 0.8508621826171874 1.8752624999999998 0.8508621826171874 1.9517624999999998 C 0.8508621826171874 2.0282625 0.9371121826171874 2.0732625 1.0773621826171875 2.0732625 C 1.2168621826171875 2.0732625 1.3038621826171874 2.0282625 1.3038621826171874 1.9517624999999998 C 1.3038621826171874 1.8752624999999998 1.2168621826171875 1.8302625 1.0773621826171875 1.8302625 M 1.0773621826171875 1.8782625 C 1.1786121826171874 1.8782625 1.2416121826171875 1.9052624999999999 1.2416121826171875 1.9517624999999998 C 1.2416121826171875 1.9982624999999998 1.1786121826171874 2.0252624999999997 1.0773621826171875 2.0252624999999997 C 0.9753621826171874 2.0252624999999997 0.9123621826171875 1.9982624999999998 0.9123621826171875 1.9517624999999998 C 0.9123621826171875 1.9052624999999999 0.9753621826171874 1.8782625 1.0773621826171875 1.8782625 M 0.8703621826171875 1.4387624999999997 L 0.8703621826171875 1.5295124999999998 C 0.8703621826171875 1.6052624999999998 0.8178621826171875 1.6930124999999998 0.7286121826171874 1.7327624999999998 L 0.7623621826171875 1.7807624999999998 C 0.8283621826171874 1.7515124999999998 0.8763621826171875 1.6945124999999999 0.9011121826171874 1.6300124999999999 C 0.9251121826171874 1.6885124999999999 0.9708621826171875 1.7365125 1.0346121826171875 1.7620124999999998 L 1.0676121826171874 1.7140125 C 0.9813621826171874 1.6810124999999998 0.9303621826171875 1.6045124999999998 0.9303621826171875 1.5295124999999998 L 0.9303621826171875 1.4387624999999997 M 1.0953621826171873 1.4095125 L 1.0953621826171873 1.7935124999999998 L 1.1538621826171873 1.7935124999999998 L 1.1538621826171873 1.6292624999999998 L 1.2408621826171875 1.6292624999999998 L 1.2408621826171875 1.8152624999999998 L 1.3001121826171875 1.8152624999999998 L 1.3001121826171875 1.3967625 L 1.2408621826171875 1.3967625 L 1.2408621826171875 1.5782625 L 1.1538621826171873 1.5782625 L 1.1538621826171873 1.4095125 M 1.419724365234375 1.7530124999999999 L 1.419724365234375 1.8032624999999998 L 2.032474365234375 1.8032624999999998 L 2.032474365234375 1.7530124999999999 M 1.7257243652343748 1.4192624999999999 C 1.5802243652343748 1.4192624999999999 1.4872243652343748 1.4695125 1.4872243652343748 1.5542624999999999 C 1.4872243652343748 1.6390124999999998 1.5802243652343748 1.6900125 1.7257243652343748 1.6900125 C 1.871224365234375 1.6900125 1.964224365234375 1.6390124999999998 1.964224365234375 1.5542624999999999 C 1.964224365234375 1.4695125 1.871224365234375 1.4192624999999999 1.7257243652343748 1.4192624999999999 M 1.7257243652343748 1.4695125 C 1.8329743652343748 1.4695125 1.9004743652343747 1.5017625 1.9004743652343747 1.5542624999999999 C 1.9004743652343747 1.6075125 1.8329743652343748 1.6390124999999998 1.7257243652343748 1.6390124999999998 C 1.619224365234375 1.6390124999999998 1.5509743652343748 1.6075125 1.5509743652343748 1.5542624999999999 C 1.5509743652343748 1.5017625 1.619224365234375 1.4695125 1.7257243652343748 1.4695125 M 1.4984743652343748 1.8632624999999998 L 1.4984743652343748 2.0597624999999997 L 1.964224365234375 2.0597624999999997 L 1.964224365234375 2.0087625 L 1.5607243652343747 2.0087625 L 1.5607243652343747 1.8632624999999998 M 2.3354794921875 1.4575125 L 2.3354794921875 1.9112624999999999 L 2.3887294921875 1.9112624999999999 C 2.5154794921875 1.9112624999999999 2.6039794921875 1.9075125 2.7082294921875 1.8895125 L 2.7022294921875 1.8385124999999998 C 2.6017294921875003 1.8557624999999998 2.5177294921875 1.8602625 2.3977294921875 1.8602625 L 2.3977294921875 1.6982624999999998 L 2.6362294921875002 1.6982624999999998 L 2.6362294921875002 1.6480124999999999 L 2.3977294921875 1.6480124999999999 L 2.3977294921875 1.5092624999999997 L 2.6512294921875 1.5092624999999997 L 2.6512294921875 1.4575125 M 2.7652294921875002 1.3960124999999999 L 2.7652294921875002 2.0747625 L 2.8274794921875 2.0747625 L 2.8274794921875 1.7207624999999998 L 2.9384794921875 1.7207624999999998 L 2.9384794921875 1.6682624999999998 L 2.8274794921875 1.6682624999999998 L 2.8274794921875 1.3960124999999999 M 3.4900916748046877 1.3960124999999999 L 3.4900916748046877 2.0755125 L 3.552341674804688 2.0755125 L 3.552341674804688 1.3960124999999999 M 3.1945916748046876 1.4485124999999999 C 3.094091674804688 1.4485124999999999 3.0220916748046878 1.5407624999999998 3.0220916748046878 1.6847624999999997 C 3.0220916748046878 1.8295124999999999 3.094091674804688 1.9217624999999998 3.1945916748046876 1.9217624999999998 C 3.294341674804688 1.9217624999999998 3.3663416748046875 1.8295124999999999 3.3663416748046875 1.6847624999999997 C 3.3663416748046875 1.5407624999999998 3.294341674804688 1.4485124999999999 3.1945916748046876 1.4485124999999999 M 3.1945916748046876 1.5040125 C 3.2605916748046875 1.5040125 3.3063416748046874 1.5752624999999998 3.3063416748046874 1.6847624999999997 C 3.3063416748046874 1.7950125 3.2605916748046875 1.8662625 3.1945916748046876 1.8662625 C 3.1278416748046878 1.8662625 3.082091674804688 1.7950125 3.082091674804688 1.6847624999999997 C 3.082091674804688 1.5752624999999998 3.1278416748046878 1.5040125 3.1945916748046876 1.5040125 M 3.7237038574218753 1.4462624999999998 L 3.7237038574218753 1.7417624999999999 L 4.040203857421875 1.7417624999999999 L 4.040203857421875 1.4462624999999998 M 3.979453857421875 1.4965124999999997 L 3.979453857421875 1.6915125 L 3.7844538574218753 1.6915125 L 3.7844538574218753 1.4965124999999997 M 4.181953857421875 1.3967625 L 4.181953857421875 1.8017625 L 4.2442038574218754 1.8017625 L 4.2442038574218754 1.3967625 M 4.020703857421875 1.8137624999999997 C 3.879703857421875 1.8137624999999997 3.792703857421875 1.8617624999999998 3.792703857421875 1.9435124999999998 C 3.792703857421875 2.0252624999999997 3.879703857421875 2.0732625 4.020703857421875 2.0732625 C 4.160203857421875 2.0732625 4.247953857421875 2.0252624999999997 4.247953857421875 1.9435124999999998 C 4.247953857421875 1.8617624999999998 4.160203857421875 1.8137624999999997 4.020703857421875 1.8137624999999997 M 4.020703857421875 1.8632624999999998 C 4.122703857421875 1.8632624999999998 4.185703857421875 1.8925124999999998 4.185703857421875 1.9435124999999998 C 4.185703857421875 1.9937624999999999 4.122703857421875 2.0237624999999997 4.020703857421875 2.0237624999999997 C 3.917203857421875 2.0237624999999997 3.8549538574218754 1.9937624999999999 3.8549538574218754 1.9435124999999998 C 3.8549538574218754 1.8925124999999998 3.917203857421875 1.8632624999999998 4.020703857421875 1.8632624999999998 M 4.449691040039062 1.9498874999999998 Q 4.460941040039063 1.9615124999999998 4.460941040039063 1.9787624999999998 Q 4.460941040039063 1.9877624999999999 4.458316040039063 1.9982624999999998 Q 4.455691040039063 2.0087625 4.450441040039062 2.0222624999999996 L 4.418941040039063 2.1257625 L 4.3829410400390625 2.1257625 L 4.408441040039063 2.0170125 Q 4.396441040039063 2.0132624999999997 4.388941040039063 2.0031375 Q 4.381441040039062 1.9930124999999999 4.381441040039062 1.9787624999999998 Q 4.381441040039062 1.9615124999999998 4.392691040039063 1.9498874999999998 Q 4.403941040039062 1.9382624999999998 4.421191040039063 1.9382624999999998 Q 4.438441040039063 1.9382624999999998 4.449691040039062 1.9498874999999998 M 5.227815307617187 1.3960124999999999 L 5.227815307617187 2.0755125 L 5.290065307617188 2.0755125 L 5.290065307617188 1.3960124999999999 M 4.932315307617188 1.4485124999999999 C 4.8318153076171875 1.4485124999999999 4.759815307617187 1.5407624999999998 4.759815307617187 1.6847624999999997 C 4.759815307617187 1.8295124999999999 4.8318153076171875 1.9217624999999998 4.932315307617188 1.9217624999999998 C 5.032065307617188 1.9217624999999998 5.104065307617188 1.8295124999999999 5.104065307617188 1.6847624999999997 C 5.104065307617188 1.5407624999999998 5.032065307617188 1.4485124999999999 4.932315307617188 1.4485124999999999 M 4.932315307617188 1.5040125 C 4.998315307617188 1.5040125 5.0440653076171875 1.5752624999999998 5.0440653076171875 1.6847624999999997 C 5.0440653076171875 1.7950125 4.998315307617188 1.8662625 4.932315307617188 1.8662625 C 4.865565307617188 1.8662625 4.819815307617188 1.7950125 4.819815307617188 1.6847624999999997 C 4.819815307617188 1.5752624999999998 4.865565307617188 1.5040125 4.932315307617188 1.5040125 M 5.701070434570313 1.4185124999999998 L 5.701070434570313 1.6255125 L 6.154820434570313 1.6255125 L 6.154820434570313 1.4185124999999998 M 6.0933204345703125 1.4680125 L 6.0933204345703125 1.5760124999999998 L 5.761820434570312 1.5760124999999998 L 5.761820434570312 1.4680125 M 5.697320434570313 2.0185125 L 5.697320434570313 2.0672625 L 6.175820434570313 2.0672625 L 6.175820434570313 2.0185125 L 5.758070434570313 2.0185125 L 5.758070434570313 1.9510124999999998 L 6.155570434570313 1.9510124999999998 L 6.155570434570313 1.7980124999999998 L 5.958320434570313 1.7980124999999998 L 5.958320434570313 1.7320124999999997 L 6.2343204345703125 1.7320124999999997 L 6.2343204345703125 1.6817624999999998 L 5.621570434570312 1.6817624999999998 L 5.621570434570312 1.7320124999999997 L 5.896070434570313 1.7320124999999997 L 5.896070434570313 1.7980124999999998 L 5.6958204345703125 1.7980124999999998 L 5.6958204345703125 1.8460124999999998 L 6.0948204345703125 1.8460124999999998 L 6.0948204345703125 1.9052624999999999 L 5.697320434570313 1.9052624999999999 M 6.661432617187501 1.6052624999999998 L 6.661432617187501 1.6570124999999998 L 6.8084326171875 1.6570124999999998 L 6.8084326171875 1.8977624999999998 L 6.870682617187501 1.8977624999999998 L 6.870682617187501 1.3967625 L 6.8084326171875 1.3967625 L 6.8084326171875 1.6052624999999998 M 6.356932617187501 1.4485124999999999 L 6.356932617187501 1.5002624999999998 L 6.5969326171875 1.5002624999999998 C 6.5834326171875 1.6217624999999998 6.4769326171875 1.7185124999999999 6.3231826171875 1.7695124999999998 L 6.3494326171875 1.8197625 C 6.541432617187501 1.7560124999999998 6.6644326171875 1.6232624999999998 6.6644326171875 1.4485124999999999 M 6.4416826171875 1.8467624999999999 L 6.4416826171875 2.0597624999999997 L 6.8879326171875 2.0597624999999997 L 6.8879326171875 2.0087625 L 6.5046826171875 2.0087625 L 6.5046826171875 1.8467624999999999 M 7.081794799804688 1.4507624999999997 L 7.081794799804688 1.7635124999999998 L 7.279044799804688 1.7635124999999998 L 7.279044799804688 1.9375124999999997 L 7.003794799804687 1.9375124999999997 L 7.003794799804687 1.9892625 L 7.618794799804688 1.9892625 L 7.618794799804688 1.9375124999999997 L 7.340544799804688 1.9375124999999997 L 7.340544799804688 1.7635124999999998 L 7.547544799804688 1.7635124999999998 L 7.547544799804688 1.7132625 L 7.144044799804687 1.7132625 L 7.144044799804687 1.5017625 L 7.540794799804688 1.5017625 L 7.540794799804688 1.4507624999999997 M 7.919549926757813 1.4575125 L 7.919549926757813 1.9112624999999999 L 7.972799926757813 1.9112624999999999 C 8.099549926757813 1.9112624999999999 8.188049926757813 1.9075125 8.292299926757813 1.8895125 L 8.286299926757813 1.8385124999999998 C 8.185799926757813 1.8557624999999998 8.101799926757813 1.8602625 7.981799926757812 1.8602625 L 7.981799926757812 1.6982624999999998 L 8.220299926757813 1.6982624999999998 L 8.220299926757813 1.6480124999999999 L 7.981799926757812 1.6480124999999999 L 7.981799926757812 1.5092624999999997 L 8.235299926757813 1.5092624999999997 L 8.235299926757813 1.4575125 M 8.349299926757812 1.3960124999999999 L 8.349299926757812 2.0747625 L 8.411549926757813 2.0747625 L 8.411549926757813 1.7207624999999998 L 8.522549926757813 1.7207624999999998 L 8.522549926757813 1.6682624999999998 L 8.411549926757813 1.6682624999999998 L 8.411549926757813 1.3960124999999999 M 9.074162109375001 1.3960124999999999 L 9.074162109375001 2.0755125 L 9.136412109375 2.0755125 L 9.136412109375 1.3960124999999999 M 8.778662109375 1.4485124999999999 C 8.678162109375 1.4485124999999999 8.606162109375001 1.5407624999999998 8.606162109375001 1.6847624999999997 C 8.606162109375001 1.8295124999999999 8.678162109375 1.9217624999999998 8.778662109375 1.9217624999999998 C 8.878412109375 1.9217624999999998 8.950412109375 1.8295124999999999 8.950412109375 1.6847624999999997 C 8.950412109375 1.5407624999999998 8.878412109375 1.4485124999999999 8.778662109375 1.4485124999999999 M 8.778662109375 1.5040125 C 8.844662109375001 1.5040125 8.890412109375001 1.5752624999999998 8.890412109375001 1.6847624999999997 C 8.890412109375001 1.7950125 8.844662109375001 1.8662625 8.778662109375 1.8662625 C 8.711912109375 1.8662625 8.666162109375 1.7950125 8.666162109375 1.6847624999999997 C 8.666162109375 1.5752624999999998 8.711912109375 1.5040125 8.778662109375 1.5040125 M 9.307774291992187 1.4462624999999998 L 9.307774291992187 1.7417624999999999 L 9.624274291992188 1.7417624999999999 L 9.624274291992188 1.4462624999999998 M 9.563524291992188 1.4965124999999997 L 9.563524291992188 1.6915125 L 9.368524291992188 1.6915125 L 9.368524291992188 1.4965124999999997 M 9.766024291992188 1.3967625 L 9.766024291992188 1.8017625 L 9.828274291992187 1.8017625 L 9.828274291992187 1.3967625 M 9.604774291992188 1.8137624999999997 C 9.463774291992188 1.8137624999999997 9.376774291992188 1.8617624999999998 9.376774291992188 1.9435124999999998 C 9.376774291992188 2.0252624999999997 9.463774291992188 2.0732625 9.604774291992188 2.0732625 C 9.744274291992188 2.0732625 9.832024291992187 2.0252624999999997 9.832024291992187 1.9435124999999998 C 9.832024291992187 1.8617624999999998 9.744274291992188 1.8137624999999997 9.604774291992188 1.8137624999999997 M 9.604774291992188 1.8632624999999998 C 9.706774291992188 1.8632624999999998 9.769774291992189 1.8925124999999998 9.769774291992189 1.9435124999999998 C 9.769774291992189 1.9937624999999999 9.706774291992188 2.0237624999999997 9.604774291992188 2.0237624999999997 C 9.501274291992187 2.0237624999999997 9.439024291992189 1.9937624999999999 9.439024291992189 1.9435124999999998 C 9.439024291992189 1.8925124999999998 9.501274291992187 1.8632624999999998 9.604774291992188 1.8632624999999998" fill="#202020" fill-rule="nonzero"></path></g></g><defs><clipPath id="SvgjsClipPath1001"><path d=" M -6.493870306102182 -1.1065427002336703 h 6.093870306102182 v 4.22934790046734 h -6.093870306102182 Z"></path></clipPath><clipPath id="SvgjsClipPath1000aa865765-e12b-423c-a9dd-0df88cfc124f"><path d=" M -6.493870306102182 -1.1065427002336703 L -0.40000000000000036 -1.1065427002336703 L -0.40000000000000036 3.12280520023367 L -6.493870306102182 3.12280520023367 Z"></path></clipPath></defs></svg>